<?xml version="1.0" encoding="UTF-8"?>
<svg version="1.1" xmlns="http://www.w3.org/2000/svg" width="228" height="221">
<path d="M0 0 C75.24 0 150.48 0 228 0 C228 72.93 228 145.86 228 221 C152.76 221 77.52 221 0 221 C0 148.07 0 75.14 0 0 Z " fill="#7D64FF" transform="translate(0,0)"/>
<path d="M0 0 C75.24 0 150.48 0 228 0 C228 72.93 228 145.86 228 221 C227.67 221 227.34 221 227 221 C226.72905518 219.62171021 226.72905518 219.62171021 226.45263672 218.21557617 C222.0058271 195.59364662 222.0058271 195.59364662 217.125 173.0625 C214.40363153 161.07711639 211.94263026 149.04472889 209.5 137 C206.82176042 123.79369947 204.0778024 110.61461223 201.09765625 97.47265625 C198.98107129 88.0773708 197.11112639 78.63874061 195.24926758 69.19018555 C193.391525 59.8179378 191.36647122 50.49244356 189.26318359 41.17260742 C186.33517398 28.15117851 183.66713704 15.07697575 181 2 C176.34813152 8.26221401 171.90146151 14.53131287 167.9375 21.25 C163.6709472 28.35205011 159.23278736 35.32323649 154.6875 42.25 C149.65281515 49.92403561 144.66574003 57.62417024 139.75 65.375 C133.88726253 74.61871786 127.96464415 83.82175165 122 93 C115.83955695 88.96959918 109.84740369 84.76338881 103.9375 80.375 C103.12474609 79.77469971 102.31199219 79.17439941 101.47460938 78.5559082 C97.40484255 75.54515172 93.3505411 72.51537282 89.31640625 69.45703125 C88.58752197 68.90547363 87.8586377 68.35391602 87.10766602 67.78564453 C85.7315818 66.74222425 84.35823724 65.69517818 82.98803711 64.64404297 C80.33988426 62.63476437 78.17735434 61.05911811 75 60 C74.88624023 60.71341553 74.77248047 61.42683105 74.65527344 62.16186523 C73.9545879 65.19668988 72.89140967 67.61805126 71.515625 70.41015625 C70.99959717 71.46726807 70.48356934 72.52437988 69.9519043 73.61352539 C69.39027588 74.75168701 68.82864746 75.88984863 68.25 77.0625 C67.04990422 79.51914358 65.8547965 81.97819964 64.66015625 84.4375 C64.35378738 85.06717178 64.04741852 85.69684357 63.73176575 86.34559631 C60.63899295 92.71515489 57.65513674 99.13377871 54.6875 105.5625 C49.85422371 116.01997914 44.97488157 126.4544634 40.0625 136.875 C35.30616407 146.9664073 30.56192106 157.06312824 25.85018921 167.17544556 C20.68953335 178.25050682 15.52053158 189.32169751 10.33056641 200.38305664 C9.61518628 201.90869446 8.9006557 203.43473094 8.18701172 204.96118164 C7.19468441 207.08328226 6.19929322 209.20391901 5.203125 211.32421875 C4.90794983 211.95712326 4.61277466 212.59002777 4.30865479 213.24211121 C3.01560688 215.98654183 1.68807725 218.46788413 0 221 C0 148.07 0 75.14 0 0 Z " fill="#FEFEFF" transform="translate(0,0)"/>
<path d="M0 0 C3.5786304 1.65167557 6.74820188 3.78286492 10 6 C6.81243454 12.09304549 3.27290439 17.61114807 -1 23 C0.19625 23.2475 1.3925 23.495 2.625 23.75 C9.62454279 25.52766166 13.74174485 29.40343609 18 35 C20.57690524 40.15381048 19.58815948 48.01496177 18 53.375 C14.00002533 58.62496675 9.3686445 62.97053817 3 65 C-4.16874512 65.92154272 -10.03523118 65.17126202 -16 61 C-20.61110243 57.10618017 -23.552176 53.40050969 -24.35546875 47.30078125 C-24.97336532 34.25815361 -17.30292515 25.15816896 -10.27539062 14.875 C-8.30318578 11.97558705 -6.37295281 9.04906539 -4.4375 6.125 C-1.12252964 1.12252964 -1.12252964 1.12252964 0 0 Z " fill="#FCFCFF" transform="translate(147,121)"/>
<path d="M0 0 C2.97 1.98 2.97 1.98 6 4 C6.68779541 4.37205566 7.37559082 4.74411133 8.08422852 5.12744141 C10.34383833 6.56123469 11.55466965 7.72211531 13 10 C14.01683565 15.46041512 13.98135855 20.83680642 13.9375 26.375 C13.950619 27.88935356 13.96686388 29.40368346 13.98632812 30.91796875 C14.02703773 34.61239747 14.02507097 38.30536483 14 42 C16.14820331 39.04338097 18.29315614 36.08441906 20.4375 33.125 C21.35499023 31.86236328 21.35499023 31.86236328 22.29101562 30.57421875 C22.87431641 29.76855469 23.45761719 28.96289062 24.05859375 28.1328125 C24.59798584 27.38918457 25.13737793 26.64555664 25.69311523 25.87939453 C27.04214515 24.0352689 27.04214515 24.0352689 28 22 C32.45941297 23.40152979 34.79491575 25.66563504 38 29 C37.44687134 29.73319458 37.44687134 29.73319458 36.88256836 30.48120117 C35.21838762 32.70528827 33.57794846 34.94585925 31.9375 37.1875 C31.35677734 37.95642578 30.77605469 38.72535156 30.17773438 39.51757812 C29.63310547 40.26845703 29.08847656 41.01933594 28.52734375 41.79296875 C28.01937256 42.4789917 27.51140137 43.16501465 26.98803711 43.87182617 C25.67281909 46.70472844 26.02168858 48.06794992 27 51 C28.18373197 53.04494552 28.18373197 53.04494552 29.72265625 54.91796875 C30.26083984 55.61470703 30.79902344 56.31144531 31.35351562 57.02929688 C31.91748047 57.74150391 32.48144531 58.45371094 33.0625 59.1875 C34.18255881 60.61522536 35.29866119 62.04606637 36.41015625 63.48046875 C36.90652588 64.10848389 37.40289551 64.73649902 37.91430664 65.38354492 C39 67 39 67 39 69 C34.28852433 70.0663547 29.56719047 70.89323707 25 69 C19.84619395 64.32876518 16.42746617 57.97609486 13 52 C12.67 57.61 12.34 63.22 12 69 C8.04 69 4.08 69 0 69 C0 46.23 0 23.46 0 0 Z " fill="#FCFBFF" transform="translate(81,116)"/>
<path d="M0 0 C4.63235294 2.26470588 4.63235294 2.26470588 6 5 C6.68839635 11.99869622 6.68839635 11.99869622 3.9375 16 C0.23727467 18.51930235 -1.6031656 18.7066341 -6 18 C-8.75329021 16.20437595 -10.52627461 14.94745078 -12 12 C-12.43023798 8.12785818 -12.31669086 6.47503629 -10.125 3.1875 C-6.80286756 -0.23234222 -4.70116232 -0.36871861 0 0 Z " fill="#7F66FF" transform="translate(147,156)"/>
</svg>
