<?xml version="1.0" encoding="UTF-8"?>
<svg version="1.1" xmlns="http://www.w3.org/2000/svg" width="599" height="600">
<path d="M0 0 C197.67 0 395.34 0 599 0 C599 198 599 396 599 600 C401.33 600 203.66 600 0 600 C0 402 0 204 0 0 Z " fill="#F6F3EC" transform="translate(0,0)"/>
<path d="M0 0 C1.09425293 0.00491455 2.18850586 0.0098291 3.31591797 0.01489258 C12.16112688 0.14199764 20.25526341 1.03427467 28.8125 3.3125 C30.02421875 3.62960938 31.2359375 3.94671875 32.484375 4.2734375 C46.83428458 8.54208149 60.80785751 16.12433099 71.8125 26.3125 C72.31587891 26.77495117 72.81925781 27.23740234 73.33789062 27.71386719 C92.92052212 45.89110224 107.43602547 71.1915198 108.98733521 98.37626648 C109.04177971 101.65243504 109.03789194 104.92274615 109.0078125 108.19921875 C109.0049826 109.38224075 109.00215271 110.56526276 108.99923706 111.78413391 C108.988138 115.52286355 108.96305275 119.26134408 108.9375 123 C108.92745692 125.55142881 108.9183334 128.10286141 108.91015625 130.65429688 C108.88823241 136.87378137 108.85485867 143.09312288 108.8125 149.3125 C110.10124023 149.29155273 111.38998047 149.27060547 112.71777344 149.24902344 C117.60079374 149.17540891 122.48376764 149.13026898 127.3671875 149.09277344 C129.46167303 149.0729296 131.55610527 149.04584564 133.65039062 149.01074219 C168.14231229 148.4480141 197.25338418 157.77602548 222.5625 181.625 C243.50825681 203.50340647 253.0262717 231.3563345 252.8125 261.3125 C251.98872077 291.24519458 238.51211034 318.05821496 216.99609375 338.46484375 C198.0260345 355.78023034 173.12859401 365.70286597 147.42927551 365.55300903 C146.33773546 365.55471788 145.24619542 365.55642673 144.1215784 365.55818737 C140.49350002 365.56146044 136.86560993 365.55051463 133.23754883 365.53955078 C130.62512211 365.5389862 128.01269508 365.53930415 125.40026855 365.54043579 C119.79100945 365.54148054 114.18179715 365.535247 108.57254982 365.52396011 C100.46269436 365.50765221 92.35286136 365.50249171 84.24299129 365.49998413 C71.08279845 365.4956153 57.92263051 365.4823283 44.76245117 365.46337891 C31.98445764 365.44499904 19.20647089 365.43085286 6.4284668 365.42236328 C5.63980293 365.42183783 4.85113906 365.42131239 4.03857628 365.42077102 C0.08177442 365.4181608 -3.87502749 365.41563341 -7.83182943 365.41314721 C-40.61707108 365.39244001 -73.4022822 365.35723669 -106.1875 365.3125 C-106.54234302 311.50032573 -106.86485114 257.68802193 -107.14737296 203.87541777 C-107.17645461 198.35395122 -107.20660773 192.83249157 -107.23754883 187.31103516 C-107.31739899 172.99839225 -107.38455612 158.68584703 -107.41967773 144.37301636 C-107.42988542 140.41032604 -107.44716931 136.4477696 -107.47094727 132.48513794 C-107.49801732 127.93083317 -107.51064648 123.37672509 -107.51157379 118.82234192 C-107.51418585 117.22676405 -107.52166579 115.63118309 -107.5351181 114.03565979 C-107.79386498 81.90424429 -97.17271121 53.93610853 -74.9375 30.625 C-54.75374827 11.14895345 -28.11239984 -0.15062553 0 0 Z " fill="#D66185" transform="translate(240.1875,101.6875)"/>
</svg>
