<?xml version="1.0" encoding="UTF-8"?>
<svg version="1.1" xmlns="http://www.w3.org/2000/svg" width="200" height="200">
<path d="M0 0 C1.34697828 0.02012111 2.693986 0.03836185 4.04101562 0.0546875 C7.29894916 0.10139622 10.55532655 0.16688438 13.8125 0.25 C12.61976614 6.39657807 10.91978404 12.05217822 8.56640625 17.84765625 C8.2433551 18.65969513 7.92030396 19.47173401 7.58746338 20.30838013 C6.5232714 22.97912356 5.44947115 25.64587711 4.375 28.3125 C3.23322609 31.16296043 2.09323906 34.01413112 0.95341492 36.8653717 C0.15437612 38.86370263 -0.64551482 40.86169302 -1.44621277 42.85935974 C-4.45594904 50.37969162 -7.40131633 57.92362761 -10.328125 65.4765625 C-11.59715186 68.73646562 -12.86740981 71.99588584 -14.13821411 75.25509644 C-14.95752743 77.36329128 -15.77274893 79.47308128 -16.58370972 81.58450317 C-17.72538543 84.55440503 -18.88252416 87.51785949 -20.04296875 90.48046875 C-20.37367371 91.35269073 -20.70437866 92.22491272 -21.04510498 93.12356567 C-25.17794082 103.56939836 -31.11148705 110.35647963 -41.26171875 115.25 C-49.60017437 118.6574632 -58.32169255 118.38462484 -67.1875 118.3125 C-68.24839844 118.30798828 -69.30929688 118.30347656 -70.40234375 118.29882812 C-72.99745598 118.28713843 -75.59244709 118.27075276 -78.1875 118.25 C-77.49165884 113.98569064 -76.10582511 110.10276329 -74.546875 106.09375 C-74.27236008 105.37877853 -73.99784515 104.66380707 -73.7150116 103.9271698 C-72.79383549 101.53295221 -71.8661427 99.14133073 -70.9375 96.75 C-70.45629196 95.50677475 -70.45629196 95.50677475 -69.96536255 94.23843384 C-67.79451783 88.63039066 -65.61236101 83.02681425 -63.42584229 77.42486572 C-62.12074323 74.0788488 -60.81881922 70.73160653 -59.51708984 67.38427734 C-57.19283901 61.41187034 -54.85705082 55.44407417 -52.51403809 49.47900391 C-51.5933788 47.13168277 -50.67561833 44.78322245 -49.76086426 42.43359375 C-48.46258606 39.10196625 -47.15263286 35.77515065 -45.83984375 32.44921875 C-45.45902145 31.46519577 -45.07819916 30.48117279 -44.68583679 29.46733093 C-40.15611214 18.07463603 -35.15761456 8.73599225 -23.84521484 3.07861328 C-15.85497431 -0.13209828 -8.52903686 -0.22142282 0 0 Z " fill="#FF5690" transform="translate(186.1875,40.75)"/>
<path d="M0 0 C1.35610486 0.01508044 2.71222602 0.02876288 4.06835938 0.04101562 C7.35849602 0.07614164 10.64778183 0.1253336 13.9375 0.1875 C13.24165905 4.45180812 11.85583075 8.3347397 10.296875 12.34375 C9.88503464 13.41634315 9.88503464 13.41634315 9.46487427 14.51060486 C8.54371256 16.90471829 7.61605424 19.29624475 6.6875 21.6875 C6.36702698 22.51565216 6.04655396 23.34380432 5.71636963 24.197052 C3.54662962 29.80375209 1.3654021 35.40591286 -0.82092285 41.00616455 C-2.13189128 44.36530365 -3.44043206 47.72538346 -4.74902344 51.08544922 C-7.08684552 57.08348798 -9.43545292 63.07721867 -11.79089355 69.06835938 C-12.71804976 71.42948369 -13.64263345 73.79161988 -14.5645752 76.15478516 C-15.87114361 79.50086635 -17.18816118 82.84265433 -18.5078125 86.18359375 C-18.89379608 87.1779393 -19.27977966 88.17228485 -19.67745972 89.19676208 C-23.90619135 99.83198837 -29.17291109 108.94959388 -39.5859375 114.54296875 C-48.56475932 118.3693282 -57.45101894 118.32819102 -67.0625 118.25 C-68.12339844 118.24548828 -69.18429688 118.24097656 -70.27734375 118.23632812 C-72.87245598 118.22463843 -75.46744709 118.20825276 -78.0625 118.1875 C-76.86976522 112.04091721 -75.16976491 106.38533221 -72.81640625 100.58984375 C-72.49340042 99.77785019 -72.17039459 98.96585663 -71.83760071 98.1292572 C-70.77344332 95.45843421 -69.69963105 92.79162434 -68.625 90.125 C-67.48218581 87.27348191 -66.34107552 84.4212865 -65.20025635 81.56896973 C-64.40073636 79.57019029 -63.60038812 77.57174197 -62.79925537 75.5736084 C-59.79598798 68.06893815 -56.86634985 60.53760474 -53.95703125 52.99609375 C-52.69486727 49.7426777 -51.43115459 46.48986844 -50.16671753 43.23733521 C-49.35326613 41.13634489 -48.54485553 39.0333953 -47.74172974 36.92843628 C-46.60993275 33.96493192 -45.45930891 31.0093603 -44.3046875 28.0546875 C-43.81637199 26.75409645 -43.81637199 26.75409645 -43.31819153 25.42723083 C-39.15569935 14.90496611 -32.61400144 7.1739409 -22.2980957 2.36499023 C-15.02077623 -0.53382717 -7.72396228 -0.14846453 0 0 Z " fill="#FF5483" transform="translate(132.0625,40.8125)"/>
<path d="M0 0 C1.29550781 0.00322266 2.59101562 0.00644531 3.92578125 0.00976562 C5.28906317 0.01812027 6.65234442 0.02658521 8.015625 0.03515625 C9.39452965 0.04017457 10.77343604 0.0447369 12.15234375 0.04882812 C15.52348159 0.06061532 18.89453128 0.0770699 22.265625 0.09765625 C20.3680167 6.74892727 18.18084851 13.19659182 15.6328125 19.625 C15.10879349 20.9615287 15.10879349 20.9615287 14.57418823 22.32505798 C13.43391556 25.23011596 12.28771581 28.13278433 11.140625 31.03515625 C10.33999306 33.0658485 9.53954 35.09661129 8.73925781 37.12744141 C7.50040688 40.27082213 6.26111169 43.41402197 5.02001953 46.55651855 C2.54685241 52.82371613 0.09797764 59.09962997 -2.32650757 65.38581848 C-3.84254223 69.31406564 -5.36812425 73.23856797 -6.8949585 77.16262817 C-7.61526298 79.02057305 -8.3313622 80.88015431 -9.04302979 82.74142456 C-10.03800921 85.34136237 -11.04849526 87.93477779 -12.0625 90.52734375 C-12.34626495 91.28063461 -12.63002991 92.03392548 -12.9223938 92.81004333 C-16.45076061 101.72292157 -22.45622072 109.88151502 -31.12109375 114.3203125 C-40.21315014 118.20497365 -48.98920999 118.23943481 -58.734375 118.16015625 C-59.79527344 118.15564453 -60.85617188 118.15113281 -61.94921875 118.14648438 C-64.54433098 118.13479468 -67.13932209 118.11840901 -69.734375 118.09765625 C-69.11736478 113.40666967 -67.81146403 109.22648083 -66.09375 104.84375 C-65.81923508 104.13014816 -65.54472015 103.41654633 -65.2618866 102.68132019 C-64.34228918 100.29679802 -63.41383871 97.91584859 -62.484375 95.53515625 C-61.82740812 93.84364441 -61.17059238 92.15207386 -60.51391602 90.46044922 C-59.06676321 86.73826589 -57.61423619 83.01822568 -56.15869141 79.29931641 C-54.45367407 74.94222537 -52.75648342 70.58217611 -51.06396484 66.22021484 C-48.74036964 60.2334856 -46.40457281 54.25163729 -44.06091309 48.2727356 C-43.13971666 45.91835782 -42.22195345 43.56263367 -41.30773926 41.20553589 C-40.01105022 37.86594941 -38.70054707 34.53209335 -37.38671875 31.19921875 C-37.00589645 30.21003952 -36.62507416 29.22086029 -36.23271179 28.20170593 C-31.8290709 17.12517032 -26.15661927 7.884711 -15.046875 2.78515625 C-9.8719533 0.60672562 -5.64757659 -0.02477007 0 0 Z " fill="#FF5176" transform="translate(69.734375,40.90234375)"/>
</svg>
